<svg width="374" height="357" viewBox="0 0 374 357" fill="none" xmlns="http://www.w3.org/2000/svg">
<path d="M266.68 158.666L315.998 211.929L347.321 177.67L298.002 124.406L266.68 158.666Z" fill="#A14FD6"/>
<path d="M1.12214 350.168H63.7765L165.326 236.671L134.003 202.412L1.12214 350.168Z" fill="#42E0CE"/>
<path d="M75 231.861L26.5 177.668L59 143.397L106.331 196.668L75 231.861Z" fill="#A14FD6"/>
<path d="M73.9999 86.9268L5.37231 10.3342L69.9999 10.1678L105.617 52.9888L73.9999 86.9268Z" fill="#42E0CE"/>
<path d="M220.371 177.333L188.374 141.336L156.677 106.668L188.016 72.3911L205.492 89.8669L237 54.6678L188.626 0L92.7754 107.168L219.327 249.663L187.994 283.933L171.504 266.473L139.777 302.166L189.499 356.86L285.223 249.169L220.371 177.333Z" fill="#A14FD6"/>
<path d="M311.181 15.947L192.386 145.886L224.371 181.755L373.177 16.6227L311.181 15.947Z" fill="#42E0CE"/>
</svg>
